<?xml version="1.0" encoding="UTF-8" standalone="no"?>
<!-- Created with Inkscape (http://www.inkscape.org/) -->

<svg
   width="210mm"
   height="297mm"
   viewBox="0 0 210 297"
   version="1.1"
   id="svg1"
   inkscape:version="1.4.4 (dcaf3e7, 2026-05-05)"
   sodipodi:docname="hand.svg"
   xmlns:inkscape="http://www.inkscape.org/namespaces/inkscape"
   xmlns:sodipodi="http://sodipodi.sourceforge.net/DTD/sodipodi-0.dtd"
   xmlns="http://www.w3.org/2000/svg"
   xmlns:svg="http://www.w3.org/2000/svg">
  <sodipodi:namedview
     id="namedview1"
     pagecolor="#ffffff"
     bordercolor="#000000"
     borderopacity="0.25"
     inkscape:showpageshadow="2"
     inkscape:pageopacity="0.0"
     inkscape:pagecheckerboard="0"
     inkscape:deskcolor="#d1d1d1"
     inkscape:document-units="mm"
     inkscape:zoom="0.57816358"
     inkscape:cx="396.08168"
     inkscape:cy="561.25984"
     inkscape:window-width="1536"
     inkscape:window-height="902"
     inkscape:window-x="0"
     inkscape:window-y="0"
     inkscape:window-maximized="1"
     inkscape:current-layer="layer1" />
  <defs
     id="defs1" />
  <g
     inkscape:label="Layer 1"
     inkscape:groupmode="layer"
     id="layer1">
    <rect
       id="hand_base"
       style="display:inline;fill:#E8D8C8;fill-opacity:1;stroke:#3A2E2A;stroke-width:4;stroke-linecap:round;stroke-linejoin:round;paint-order:fill markers stroke"
       width="60.136288"
       height="148.45831"
       x="74.931854"
       y="74.270844"
       ry="30.068144" />
    <path
       id="finger_l"
       style="display:none;fill:#e8d8c8;fill-opacity:1;stroke:#3a2e2a;stroke-width:4;stroke-linecap:round;stroke-linejoin:round;paint-order:fill markers stroke"
       d="m 78,210 c -4,22 2,34 14,34 8,0 12,-6 12,-18 v -14 c -2,-8 -10,-14 -16,-14 -4,0 -8,6 -10,12 z" />
    <path
       id="finger_r"
       style="display:none;fill:#e8d8c8;fill-opacity:1;stroke:#3a2e2a;stroke-width:4;stroke-linecap:round;stroke-linejoin:round;paint-order:fill markers stroke"
       d="m 132,210 c 4,22 -2,34 -14,34 -8,0 -12,-6 -12,-18 v -14 c 2,-8 10,-14 16,-14 4,0 8,6 10,12 z" />
  </g>
</svg>
